<svg xmlns="http://www.w3.org/2000/svg" width="800" height="800" viewBox="0 0 800 800">
  <rect width="800" height="800" fill="#ffffff"/>
  <ellipse cx="400" cy="720" rx="180" ry="18" fill="#000" opacity="0.06"/>
  <g transform="translate(180, 100)">
    <path d="M120 60 Q220 -20 320 60 L340 100 L300 120 L280 80 Q220 40 160 80 L140 120 L100 100 Z" fill="#7a2d3a" opacity="0.95"/>
    <path d="M60 120 L380 120 L400 480 L40 480 Z" fill="#8b3344"/>
    <path d="M60 120 L140 120 L160 200 L120 220 L60 180 Z" fill="#7a2d3a"/>
    <path d="M380 120 L300 120 L280 200 L320 220 L380 180 Z" fill="#7a2d3a"/>
    <rect x="140" y="300" width="180" height="100" rx="4" fill="#6b2835" opacity="0.8"/>
    <path d="M40 480 L400 480 L410 500 L30 500 Z" fill="#6b2835"/>
  </g>
  <text x="400" y="340" text-anchor="middle" font-family="Georgia,serif" font-size="16" fill="#111" letter-spacing="1">ENFANTS RICHES</text>
  <text x="400" y="365" text-anchor="middle" font-family="Georgia,serif" font-size="16" fill="#111" letter-spacing="1">D…PRIM…S</text>
  <text x="400" y="660" text-anchor="middle" font-family="Georgia,serif" font-size="17" fill="#0a0a0a" opacity="0.75">Enfants Riches Dťprimťs Trashed Hoodie</text>
  <text x="400" y="690" text-anchor="middle" font-family="Arial,sans-serif" font-size="14" fill="#0a0a0a" opacity="0.45">Upload photo at admin.html</text>
</svg>
