<svg xmlns="http://www.w3.org/2000/svg" width="800" height="800" viewBox="0 0 800 800">
  <rect width="800" height="800" fill="#ffffff"/>
  <ellipse cx="400" cy="720" rx="180" ry="18" fill="#000" opacity="0.06"/>
  <g transform="translate(200, 100)">
    <rect x="30" y="0" width="340" height="36" fill="#3d6cb9" opacity="0.85"/>
    <rect x="30" y="0" width="340" height="36" fill="url(#plaid)" opacity="0.9"/>
    <rect x="30" y="36" width="340" height="28" fill="#fafafa" stroke="#111" stroke-width="1"/>
    <line x1="50" y1="36" x2="50" y2="64" stroke="#111" stroke-width="3"/>
    <line x1="350" y1="36" x2="350" y2="64" stroke="#111" stroke-width="3"/>
    <rect x="30" y="64" width="340" height="32" fill="#b8b8b8"/>
    <path d="M40 96 L360 96 L380 540 L20 540 Z" fill="#c5c5c5"/>
    <text x="120" y="280" font-family="Impact,Arial Black,sans-serif" font-size="72" fill="#111" stroke="#fafafa" stroke-width="4">3</text>
    <text x="220" y="280" font-family="Arial Black,sans-serif" font-size="36" fill="#111" stroke="#fafafa" stroke-width="3">USA</text>
  </g>
  <defs>
    <pattern id="plaid" width="16" height="16" patternUnits="userSpaceOnUse">
      <rect width="16" height="16" fill="#3d6cb9"/>
      <rect width="8" height="8" fill="#fafafa" opacity="0.5"/>
      <rect x="8" y="8" width="8" height="8" fill="#fafafa" opacity="0.5"/>
    </pattern>
  </defs>
  <text x="400" y="660" text-anchor="middle" font-family="Arial,sans-serif" font-size="18" fill="#0a0a0a" opacity="0.75">Project G/R 3 Layered Sweatpants</text>
  <text x="400" y="690" text-anchor="middle" font-family="Arial,sans-serif" font-size="14" fill="#0a0a0a" opacity="0.45">Upload photo at admin.html</text>
</svg>
